<svg xmlns="http://www.w3.org/2000/svg" viewBox="0 0 836.1 836.1"><path d="M827 263.7A263.5 263.5 0 0 0 377 77.2a263.1 263.1 0 0 0-44.7 313.4L16.5 706a25.8 25.8 0 0 0-5.1 28.9c.9 2.2 2.4 4.2 4 5.9l70.8 70.7c1.7 1.7 3.7 3.1 5.9 4.1a25.7 25.7 0 0 0 28.9-5.1l43.7-43.7 62.9 62.9c1.7 1.7 3.7 3.1 5.9 4.1a25.7 25.7 0 0 0 28.9-5.1L332 759c1.7-1.7 3-3.7 4-5.9a25.7 25.7 0 0 0-5-28.9l-62-61.9L436.5 495A263.3 263.3 0 0 0 666 506.8a263.1 263.1 0 0 0 140.3-140.3A262.7 262.7 0 0 0 827 263.7zm-171.2 92.5a130 130 0 0 1-92.5 38.3 130 130 0 0 1-92.5-38.3 130.1 130.1 0 0 1-38.4-92.5c0-35 13.6-67.8 38.3-92.5s57.6-38.3 92.5-38.3 67.8 13.6 92.5 38.3 38.3 57.6 38.3 92.5c.2 34.9-13.4 67.8-38.2 92.5z"/></svg>
