<svg xmlns="http://www.w3.org/2000/svg" viewBox="0 0 58 58"><path d="M46 34a12 12 0 1 0 0 24 12 12 0 0 0 0-24zm0 22a10 10 0 1 1 0-20 10 10 0 0 1 0 20z"/><path d="M52 45h-5v-5a1 1 0 1 0-2 0v6c0 .6.4 1 1 1h6a1 1 0 1 0 0-2zM27 21H7v29h20V32h18V21H27zm9 2h7v7h-7v-7zm-18 0h7v7h-7v-7zm-9 0h7v7H9v-7zm0 9h7v7H9v-7zm7 16H9v-7h7v7zm9 0h-7v-7h7v7zm0-9h-7v-7h7v7zm9-9h-7v-7h7v7z"/><path d="M33 55H2V16h48v13a1 1 0 1 0 2 0V5c0-.6-.4-1-1-1h-5V1c0-.6-.4-1-1-1h-7a1 1 0 0 0-1 1v3H15V1c0-.6-.4-1-1-1H7a1 1 0 0 0-1 1v3H1a1 1 0 0 0-1 1v51c0 .6.4 1 1 1h32a1 1 0 1 0 0-2zm6-53h5v6h-5V2zM8 2h5v6H8V2zM2 6h4v3c0 .6.4 1 1 1h7c.6 0 1-.4 1-1V6h22v3c0 .6.4 1 1 1h7c.6 0 1-.4 1-1V6h4v8H2V6z"/></svg>