<svg xmlns="http://www.w3.org/2000/svg" viewBox="0 0 438.53 438.53"><path d="M409.13 109.2a218.35 218.35 0 0 0-79.8-79.8C295.73 9.8 259.06 0 219.27 0 179.5 0 142.8 9.8 109.21 29.4a218.29 218.29 0 0 0-79.8 79.8C9.81 142.8 0 179.5 0 219.27c0 39.78 9.8 76.46 29.4 110.06a218.35 218.35 0 0 0 79.8 79.8c33.6 19.6 70.29 29.4 110.07 29.4s76.47-9.8 110.06-29.4a218.29 218.29 0 0 0 79.8-79.8c19.6-33.6 29.4-70.28 29.4-110.06s-9.8-76.48-29.4-110.07zm-55.39 188a154.84 154.84 0 0 1-56.52 56.54c-23.8 13.9-49.78 20.84-77.95 20.84s-54.15-6.94-77.94-20.84a154.85 154.85 0 0 1-56.53-56.53c-13.9-23.8-20.84-49.77-20.84-77.94 0-28.17 6.95-54.15 20.84-77.95a154.81 154.81 0 0 1 56.53-56.53c23.79-13.9 49.77-20.84 77.94-20.84 28.17 0 54.15 6.95 77.95 20.84a154.82 154.82 0 0 1 56.52 56.53c13.9 23.8 20.84 49.78 20.84 77.95s-6.94 54.15-20.84 77.94z"/><path d="M246.68 109.63h-18.27a8.9 8.9 0 0 0-6.57 2.57 8.91 8.91 0 0 0-2.57 6.57v100.5h-63.95a8.9 8.9 0 0 0-6.57 2.56 8.9 8.9 0 0 0-2.57 6.57v18.27a8.9 8.9 0 0 0 2.57 6.57 8.9 8.9 0 0 0 6.57 2.56h91.37c2.66 0 4.85-.85 6.56-2.56a8.9 8.9 0 0 0 2.57-6.57v-127.9a8.9 8.9 0 0 0-2.57-6.57 8.9 8.9 0 0 0-6.57-2.57z"/></svg>
