<svg xmlns="http://www.w3.org/2000/svg" viewBox="0 0 475.1 475.1"><path d="M464.5 412.8l-98-97.9c23.7-34 35.5-72 35.5-113.9 0-27.2-5.3-53.2-15.9-78a200.9 200.9 0 0 0-42.8-64.3 201 201 0 0 0-64.2-42.9A197.5 197.5 0 0 0 201 0c-27.2 0-53.2 5.3-78 15.8a201 201 0 0 0-64.3 42.9 201 201 0 0 0-42.9 64.2A197.5 197.5 0 0 0 0 201c0 27.2 5.3 53.2 15.8 78a200.9 200.9 0 0 0 42.9 64.3 201 201 0 0 0 64.2 42.9A197.5 197.5 0 0 0 201 402c41.9 0 79.9-11.8 114-35.4l97.8 97.6a34 34 0 0 0 25.7 10.9c10 0 18.5-3.6 25.7-10.9a35.1 35.1 0 0 0 10.9-25.7 35 35 0 0 0-10.6-25.7zM291.4 291.4c-25 25-55.2 37.5-90.4 37.5s-65.3-12.5-90.4-37.5c-25-25-37.5-55.2-37.5-90.4s12.5-65.3 37.5-90.4c25-25 55.2-37.5 90.4-37.5s65.3 12.5 90.4 37.5c25 25 37.5 55.2 37.5 90.4s-12.5 65.3-37.5 90.4z"/></svg>
