<svg xmlns="http://www.w3.org/2000/svg" viewBox="0 0 477 553"><path fill="#3e9cbb" d="M477 485c-1 8-4 15-12 19-30 16-59 34-90 49h-6c-6-3-8-9-8-16v-96c0-18-9-23-25-14l-96 52c-2-2-1-4-1-6V128v-6l5-2L463 0h5c6 2 9 7 9 13v336a12 12 0 0 0 0 2v125"/><path fill="#58c0e3" d="M239 122v351c0 2-1 4 1 6-4 1-6-2-9-3l-89-49a39 39 0 0 0-10-4c-7-2-12 1-14 7a33 33 0 0 0-2 11v95c0 7-1 14-9 17h-4a102 102 0 0 1-16-7c-23-13-47-27-71-39-11-6-16-15-16-27V334v-80l1-1 3 3 106 58c5 3 5 3 6-3v-56-65l-4-3-57-31-55-31V14C1 2 7-2 19 2a61 61 0 0 1 6 3l42 23 148 81c8 5 15 10 24 13z"/><path fill="#3e9cbb" d="M1 253l115-63v65 56c-1 6-1 6-6 3L4 256l-3-3z"/></svg>
